<?xml version="1.0" standalone="no"?>
<!DOCTYPE svg PUBLIC "-//W3C//DTD SVG 20010904//EN"
 "http://www.w3.org/TR/2001/REC-SVG-20010904/DTD/svg10.dtd">
<svg version="1.0" xmlns="http://www.w3.org/2000/svg"
 width="286.000000pt" height="92.000000pt" viewBox="0 0 286.000000 92.000000"
 preserveAspectRatio="xMidYMid meet">

<g transform="translate(0.000000,92.000000) scale(0.100000,-0.100000)"
fill="#01226a" stroke="none">
<path d="M795 783 c-123 -27 -204 -75 -279 -163 -39 -46 -96 -143 -96 -165 0
-3 35 29 78 73 83 84 143 123 230 148 89 26 212 2 212 -41 0 -24 -32 -35 -60
-19 -37 20 -131 17 -195 -7 -148 -55 -292 -242 -271 -352 22 -117 180 -177
336 -127 182 59 324 213 353 385 20 119 -36 224 -139 259 -45 15 -123 19 -169
9z m-135 -252 c0 -10 -11 -53 -25 -95 -29 -90 -29 -86 -11 -86 8 0 12 7 10 18
-6 24 113 174 135 170 10 -2 20 -19 25 -46 6 -23 12 -42 15 -42 3 1 20 18 36
40 53 69 77 60 89 -33 4 -28 9 -70 12 -93 10 -71 1 -74 -211 -74 -143 0 -184
3 -188 13 -7 19 62 230 80 244 19 15 33 8 33 -16z"/>
<path d="M696 395 l-37 -45 54 0 54 0 -10 45 c-6 25 -14 45 -17 45 -4 0 -24
-20 -44 -45z"/>
<path d="M827 395 l-38 -45 51 0 c43 0 51 3 46 16 -3 9 -6 29 -6 45 0 16 -3
29 -7 29 -5 -1 -25 -21 -46 -45z"/>
<path d="M1292 628 c-8 -11 -112 -309 -112 -323 0 -3 34 -5 75 -5 63 0 76 3
85 19 15 29 13 31 -24 31 -19 0 -38 5 -41 10 -4 6 12 64 34 130 23 66 41 126
41 135 0 18 -43 20 -58 3z"/>
<path d="M1485 624 c-21 -21 -15 -38 15 -42 30 -5 55 25 39 45 -15 17 -34 16
-54 -3z"/>
<path d="M2201 623 c-13 -26 -101 -294 -101 -310 0 -21 59 -17 66 5 13 40 34
82 43 82 5 0 12 -22 16 -50 7 -48 8 -50 37 -50 l31 0 -6 82 -5 82 39 34 c21
18 39 38 39 44 0 22 -66 -3 -103 -40 l-38 -37 7 30 c4 17 15 52 26 78 10 27
16 53 13 58 -10 16 -54 10 -64 -8z"/>
<path d="M1462 541 c-15 -9 -92 -227 -84 -236 10 -10 50 -5 59 8 15 18 82 225
75 231 -8 9 -35 7 -50 -3z"/>
<path d="M1584 542 c-11 -7 -84 -210 -84 -233 0 -6 14 -9 32 -7 30 3 33 7 61
91 21 61 38 94 54 104 13 9 27 13 30 9 4 -3 -5 -43 -19 -89 -14 -45 -27 -89
-29 -97 -5 -20 50 -27 62 -8 5 7 18 45 30 83 21 70 51 115 76 115 19 0 16 -21
-10 -92 -13 -35 -27 -75 -31 -90 -6 -26 -4 -28 23 -28 36 0 39 5 80 129 40
120 26 144 -63 107 -30 -12 -36 -12 -50 2 -13 14 -22 14 -58 5 -27 -7 -47 -8
-52 -2 -12 11 -36 12 -52 1z"/>
<path d="M1985 535 c-37 -13 -65 -38 -65 -57 0 -16 41 -8 70 14 22 16 33 19
41 11 22 -22 4 -46 -47 -63 -78 -27 -94 -38 -111 -78 -14 -35 -14 -37 8 -55
16 -13 30 -16 48 -11 14 4 46 6 71 5 l46 -2 33 103 c18 57 30 110 26 120 -12
29 -59 35 -120 13z m30 -147 c-13 -46 -71 -74 -82 -41 -6 18 42 63 67 63 17 0
20 -4 15 -22z"/>
</g>
</svg>
